<?xml version="1.0" encoding="UTF-8" standalone="no"?>
<!-- Created with Inkscape (http://www.inkscape.org/) -->

<svg
   version="1.1"
   id="svg4596"
   width="430"
   height="550"
   viewBox="-19 -18 430 550"
   sodipodi:docname="pySciCatLogo.svg"
   inkscape:version="1.2 (dc2aeda, 2022-05-15)"
   inkscape:export-filename="pySciCatLogo.png"
   inkscape:export-xdpi="96"
   inkscape:export-ydpi="96"
   xmlns:inkscape="http://www.inkscape.org/namespaces/inkscape"
   xmlns:sodipodi="http://sodipodi.sourceforge.net/DTD/sodipodi-0.dtd"
   xmlns:xlink="http://www.w3.org/1999/xlink"
   xmlns="http://www.w3.org/2000/svg"
   xmlns:svg="http://www.w3.org/2000/svg"
   xmlns:rdf="http://www.w3.org/1999/02/22-rdf-syntax-ns#"
   xmlns:cc="http://creativecommons.org/ns#"
   xmlns:dc="http://purl.org/dc/elements/1.1/">
  <metadata
     id="metadata4602">
    <rdf:RDF>
      <cc:Work
         rdf:about="">
        <dc:format>image/svg+xml</dc:format>
        <dc:type
           rdf:resource="http://purl.org/dc/dcmitype/StillImage" />
      </cc:Work>
    </rdf:RDF>
  </metadata>
  <defs
     id="defs4600">
    <linearGradient
       gradientUnits="userSpaceOnUse"
       y2="131.85291"
       x2="110.14919"
       y1="77.070274"
       x1="55.549179"
       id="linearGradient9521"
       xlink:href="#linearGradient9515"
       inkscape:collect="always"
       gradientTransform="matrix(2.1266723,0,0,2.1266723,71.497212,-140.82896)" />
    <linearGradient
       id="linearGradient9515"
       inkscape:collect="always">
      <stop
         id="stop9517"
         offset="0"
         style="stop-color:#387eb8;stop-opacity:1" />
      <stop
         id="stop9519"
         offset="1"
         style="stop-color:#366994;stop-opacity:1" />
    </linearGradient>
    <linearGradient
       gradientUnits="userSpaceOnUse"
       y2="168.1012"
       x2="147.77737"
       y1="111.92053"
       x1="89.136749"
       id="linearGradient11307"
       xlink:href="#linearGradient11301"
       inkscape:collect="always"
       gradientTransform="matrix(2.1266723,0,0,2.1266723,71.497212,-140.82896)" />
    <linearGradient
       id="linearGradient11301"
       inkscape:collect="always">
      <stop
         id="stop11303"
         offset="0"
         style="stop-color:#ffe052;stop-opacity:1" />
      <stop
         id="stop11305"
         offset="1"
         style="stop-color:#ffc331;stop-opacity:1" />
    </linearGradient>
    <linearGradient
       inkscape:collect="always"
       xlink:href="#linearGradient9515"
       id="linearGradient462"
       gradientUnits="userSpaceOnUse"
       x1="55.549179"
       y1="77.070274"
       x2="110.14919"
       y2="131.85291"
       gradientTransform="matrix(2.1266723,0,0,2.1266723,-86.308439,-219.73179)" />
    <linearGradient
       inkscape:collect="always"
       xlink:href="#linearGradient11301"
       id="linearGradient464"
       gradientUnits="userSpaceOnUse"
       x1="89.136749"
       y1="111.92053"
       x2="147.77737"
       y2="168.1012"
       gradientTransform="matrix(2.1266723,0,0,2.1266723,-86.308439,-219.73179)" />
  </defs>
  <sodipodi:namedview
     pagecolor="#ffffff"
     bordercolor="#666666"
     borderopacity="1"
     objecttolerance="10"
     gridtolerance="10"
     guidetolerance="10"
     inkscape:pageopacity="0"
     inkscape:pageshadow="2"
     inkscape:window-width="1434"
     inkscape:window-height="789"
     id="namedview4598"
     showgrid="false"
     inkscape:zoom="0.70166176"
     inkscape:cx="148.93216"
     inkscape:cy="344.18293"
     inkscape:window-x="0"
     inkscape:window-y="25"
     inkscape:window-maximized="0"
     inkscape:current-layer="svg4596"
     fit-margin-top="15"
     fit-margin-left="15"
     fit-margin-right="15"
     fit-margin-bottom="15"
     inkscape:showpageshadow="2"
     inkscape:pagecheckerboard="0"
     inkscape:deskcolor="#d1d1d1" />
  <path
     style="color:#000000;display:inline;overflow:visible;visibility:visible;fill:url(#linearGradient462);fill-opacity:1;fill-rule:nonzero;stroke:none;stroke-width:2.12667;stroke-linecap:butt;stroke-linejoin:miter;stroke-miterlimit:4;stroke-dasharray:none;stroke-dashoffset:0;stroke-opacity:1;marker:none;marker-start:none;marker-mid:none;marker-end:none"
     d="m 92.5625,407.42434 -9.41211,8.95703 c -23.938015,22.77458 -46.099754,44.52525 -46.302734,45.44531 -0.361779,1.6399 3.978181,8.194 7.222657,10.90626 3.382537,2.82764 6.295697,4.44389 10.277344,5.70118 l 2.722655,0.85937 68.466798,0.0663 68.46874,0.0644 3.59768,-0.93555 c 4.9917,-1.30016 9.36797,-3.39193 12.07811,-5.77149 3.01934,-2.651 7.05468,-8.78207 7.05468,-10.71875 v -1.53516 l -26.48827,-26.51942 -26.48828,-26.51954 h -35.59962 z"
     id="path456" />
  <path
     style="color:#000000;display:inline;overflow:visible;visibility:visible;fill:url(#linearGradient9521);fill-opacity:1;fill-rule:nonzero;stroke:none;stroke-width:2.12667;stroke-linecap:butt;stroke-linejoin:miter;stroke-miterlimit:4;stroke-dasharray:none;stroke-dashoffset:0;stroke-opacity:1;marker:none;marker-start:none;marker-mid:none;marker-end:none"
     d="m 283.63182,2.6552953 c -59.61424,0 -55.89062,25.8515597 -55.89062,25.8515597 l 0.0664,26.783205 h 56.88866 v 8.041016 H 205.2119 c 0,0 -38.14648,-4.325154 -38.14648,55.826184 -10e-6,60.15131 33.29492,58.01757 33.29492,58.01757 h 19.87109 v -27.9121 c 0,0 -1.07144,-33.29689 32.76367,-33.29689 h 56.42383 c 0,0 31.70118,0.51306 31.70118,-30.63671 V 33.823265 c 0,-10e-6 4.81129,-31.1679697 -57.48829,-31.1679697 z M 252.26464,20.665055 c 5.65998,0 10.23437,4.5744 10.23437,10.23438 0,5.65998 -4.57439,10.23438 -10.23437,10.23438 -5.65999,0 -10.23438,-4.5744 -10.23438,-10.23438 0,-5.65998 4.57439,-10.23438 10.23438,-10.23438 z"
     id="path8615" />
  <path
     style="color:#000000;display:inline;overflow:visible;visibility:visible;fill:url(#linearGradient464);fill-opacity:1;fill-rule:nonzero;stroke:none;stroke-width:2.12667;stroke-linecap:butt;stroke-linejoin:miter;stroke-miterlimit:4;stroke-dasharray:none;stroke-dashoffset:0;stroke-opacity:1;marker:none;marker-start:none;marker-mid:none;marker-end:none"
     d="m 222.10547,417.1431 15.64844,15.69921 15.65039,15.69922 v 5.75781 c 0,6.37821 -1.09979,12.3974 -3.58595,19.64454 l -1.64647,4.80078 5.44921,-0.30469 c 8.91289,-0.49588 19.58504,-2.10337 20.16211,-3.0371 0.20161,-0.32615 0.8921,-0.59181 1.53516,-0.59181 3.59944,0 16.29312,-8.16226 22.77539,-14.64452 3.71221,-3.71224 10.64259,-13.04308 10.64259,-14.32814 0,-0.20693 0.58175,-1.64683 1.29295,-3.20117 1.92258,-4.20182 4.70703,-12.95712 4.70703,-14.80077 0,-0.88731 0.30131,-1.79878 0.66799,-2.0254 0.98998,-0.61184 0.8425,-7.64337 -0.16801,-8.01758 -0.45832,-0.16971 -21.60048,-0.38471 -46.98242,-0.47852 z"
     id="path460" />
  <path
     style="color:#000000;display:inline;overflow:visible;visibility:visible;fill:url(#linearGradient11307);fill-opacity:1;fill-rule:nonzero;stroke:none;stroke-width:2.12667;stroke-linecap:butt;stroke-linejoin:miter;stroke-miterlimit:4;stroke-dasharray:none;stroke-dashoffset:0;stroke-opacity:1;marker:none;marker-start:none;marker-mid:none;marker-end:none"
     d="m 368.97167,61.731468 c -0.24387,9.37e-4 -0.37304,0.0098 -0.37304,0.0098 h -19.8711 v 27.912106 c 0,0 1.07146,33.296886 -32.76368,33.296886 h -56.42382 c 0,0 -31.70118,-0.51308 -31.70118,30.63671 v 51.50586 c 0,0 -4.81326,31.16797 57.48633,31.16797 59.61426,0 55.89258,-25.85157 55.89258,-25.85157 l -0.0663,-26.78318 h -56.88867 v -8.04104 h 79.48437 c 0,0 38.14649,4.32712 38.14649,-55.82421 2e-5,-56.391851 -29.26389,-58.043365 -32.92187,-58.029297 z M 316.69432,197.78224 c 5.65999,0 10.23437,4.57439 10.23437,10.23438 3e-5,5.65999 -4.57438,10.23438 -10.23437,10.23438 -5.65999,0 -10.23438,-4.57439 -10.23438,-10.23438 0,-5.65999 4.57439,-10.23438 10.23438,-10.23438 z"
     id="path8620" />
  <path
     id="path4719"
     style="fill:#737373;fill-opacity:1;stroke-width:0.666667"
     d="m 204.07011,495.84677 c 15.49116,-5.90487 27.74043,-20.83916 29.67698,-36.18212 l 0.40888,-3.23944 -42.87626,-42.82052 -42.87626,-42.82051 -10.33334,-0.17949 -10.33333,-0.17948 v -8.33333 -8.33333 l 7.10322,-0.18858 7.10322,-0.18858 0.75122,-0.90516 c 0.49195,-0.59277 0.68641,-3.74882 0.56345,-9.14476 l -0.18778,-8.23959 -7.66666,-0.33333 -7.66667,-0.33334 v -8.66666 -8.66667 l 7.66667,-0.33333 7.66666,-0.33334 0.18778,-8.23959 c 0.12296,-5.39594 -0.0715,-8.55199 -0.56345,-9.14476 l -0.75122,-0.90516 -7.10322,-0.18857 -7.10322,-0.18858 v -8.33334 -8.33333 l 6.9615,-0.19141 c 3.82882,-0.10526 7.35382,-0.517 7.83333,-0.91496 l 0.87184,-0.72356 v -7.83674 -7.83674 l -0.87184,-0.72356 c -0.47951,-0.39796 -4.00451,-0.80969 -7.83333,-0.91496 l -6.9615,-0.1914 v -8.33334 -8.33333 l 7.13641,-0.33333 c 3.92502,-0.18334 7.44483,-0.64314 7.82178,-1.02179 0.42449,-0.42639 0.75322,-7.27818 0.8636,-18 l 0.17821,-17.31155 10.36591,-0.33333 10.36592,-0.33333 1.79146,-1.17596 c 5.9843,-3.92819 5.47704,-12.7695 -0.91559,-15.95869 l -2.27437,-1.13465 -38,-0.0295 -38,-0.0295 -2.33333,1.39321 c -3.66493,2.18839 -4.63516,3.82193 -4.65184,7.83216 l -0.0148,3.56375 1.37969,1.9376 c 0.75884,1.06569 2.03384,2.312 2.83334,2.76958 l 1.45361,0.832 19.33333,0.33333 19.33334,0.33333 v 8.66667 8.66667 l -7.95849,0.1889 c -4.46836,0.10606 -8.34215,0.50732 -8.83333,0.91496 l -0.87485,0.72606 v 69.00326 69.00326 l -22.5,23.07891 c -12.375,12.6934 -32.175,32.86543 -44,44.82675 l -21.5,21.74784 v 3.31159 c 0,7.85219 5.38259,18.90949 12.83333,26.36313 2.84167,2.84276 5.44674,5.16867 5.78904,5.16867 0.3423,0 2.0673,0.89719 3.83333,1.99375 9.65313,5.99379 7.87629,5.87766 88.21097,5.76485 l 69.66666,-0.0978 z M 55.73678,515.06379 C 39.46366,513.0084 29.29333,507.54342 17.54371,494.54091 7.474627,483.39816 2.42208,472.07423 0.75346,456.91012 L 0,450.06284 1.325787,448.24403 C 2.054967,447.24368 22.47074,426.62607 46.69417,402.42711 L 90.73678,358.429 v -65.84952 -65.84952 l -1.5,-0.5701 c -0.825,-0.31355 -2.9269,-0.90648 -4.67089,-1.31761 -17.50402,-4.12642 -25.47281,-22.11814 -17.41508,-39.31925 3.81532,-8.14467 12.74118,-13.00339 25.58597,-13.92751 0,0 4.662144,-0.41962 7,-0.50361 1.49903,-0.0539 0,-63.52892 0,-63.52892 h 18 c 0,0 -1.5,63.52892 0,63.52892 h 9 9 l 0.35979,-116.000004 0.3598,-34 0.79875,-2.333333 c 2.19886,-6.423367 8.07117,-13.5153267 12.81499,-15.4765597 8.36374,-3.45780704 14.51642,-4.13202004 20.66734,-2.264734 10.9675,3.329494 19.29376,13.8441597 19.32794,24.4079597 0.018,5.553407 4.33304,9.992557 9.71806,9.997507 l 16.71333,0.003 c 0.36185,7.25623 0.27768,16.926473 0.27768,16.926473 0.22716,0.07572 -17.66577,0.841724 -26.4078,-1.541948 -9.71544,-3.38343 -16.57212,-11.697995 -17.6238,-21.901045 -0.5792,-5.619203 -1.34353,-7.474896 -3.99917,-9.70947 l -2.10854,-1.77422 h -3.38592 -3.38593 l -2.20808,1.684187 c -3.58014,2.730709 -3.66317,3.653427 -3.44783,38.315813 l 0.19606,113.666374 7,0.50361 c 15.77826,1.13517 24.30922,7.5221 27.92534,20.90707 3.03494,11.23377 -3.28902,25.30317 -13.40841,29.83073 -5.87229,2.62736 -7.18449,3.09192 -8.7333,3.09192 -0.81783,0 -2.15371,0.46702 -2.96863,1.0378 l -1.48167,1.03781 v 65.11471 65.1147 l 6.76527,6.68082 c 3.7209,3.67446 24.1209,24.10688 45.33333,45.40539 l 38.56807,38.72456 v 5.73185 c 0,10.05565 -3.14075,21.08985 -8.44786,29.67936 -5.66004,9.1607 -19.14324,21.69914 -27.55346,25.62278 -13.90368,6.48652 -14.54932,6.53191 -91.33202,6.42198 l -63.66666,-0.0911 z"
     inkscape:label="left"
     inkscape:connector-curvature="0"
     sodipodi:nodetypes="sscccccccccsscccccccsscccccsscccsscccssscccssccccscsccccccsscccsscssssscsssscsscccssssccccccccssssccccsscccsccssssscccsscsssscs" />
  <path
     style="fill:#737373;fill-opacity:1;stroke-width:0.666667"
     d="m 249.40345,515.00278 c -4.30487,-0.54727 -17.4699,-4.49108 -17.79176,-5.32983 -0.34394,-0.89628 9.81903,-11.31448 12.30276,-12.61172 l 1.511,-0.78919 3.82233,0.90034 c 9.22846,2.17373 27.88887,-1.4651 41.40686,-8.07446 26.20139,-12.81067 44.74881,-42.5734 44.74881,-71.80766 0,-21.25985 -8.00986,-41.77133 -22.25103,-56.97996 -11.48659,-12.26693 -23.32522,-18.89854 -42.08231,-23.57314 -3.3,-0.82242 -6.52322,-1.94894 -7.16272,-2.50338 l -1.16272,-1.00808 -0.17061,-31.40024 -0.17061,-29.40025 h -8.66667 -8.66667 l -0.17066,29.63734 c -0.0939,29.50052 -0.4123,31.87896 -0.70764,32.1743 -0.29534,0.29534 -2.76854,1.13316 -5.496,1.86182 -8.84413,2.36277 -10.21482,2.8061 -15.6257,5.05383 -7.27836,3.0235 -12.6035,5.95135 -17.2092,9.46187 -4.47771,3.41297 -15.53783,14.2106 -17.54832,17.13186 l -1.36799,1.9877 -1.63533,-0.74512 c -1.60886,-0.73304 -11.35901,-9.2982 -11.79657,-10.36285 -0.55245,-1.34419 11.65794,-14.60237 18.55741,-20.14985 8.1015,-6.51396 18.25224,-12.18935 28.3011,-15.82344 2.9156,-1.05441 5.53717,-2.28694 5.82572,-2.73895 0.28855,-0.45201 0.54707,0.32766 0.36558,-25.15517 l -0.15906,-22.33334 -7.95849,-0.1889 c -4.58161,-0.10875 -8.33807,-0.50393 -8.85307,-0.93134 l -0.89458,-0.74244 0.1864,-8.06866 0.1864,-8.06866 h 44.66667 44.66667 v 8.66667 8.66667 l -7.95849,0.1889 c -4.46836,0.10606 -8.34215,0.50732 -8.83333,0.91496 l -0.87485,0.72606 v 21.81505 23.81504 l 1.16667,0.98487 c 0.64166,0.54168 2.51666,1.38148 4.16666,1.86623 3.50234,1.02895 17.12904,7.48507 21,9.94948 20.51424,13.06022 37.77452,37.27511 43.05722,60.40607 11.6058,50.81748 -14.21114,98.68288 -63.39055,117.52806 -3.51868,1.34832 -8.12981,2.51826 -16,4.0595 -4.1301,0.80882 -17.77698,1.44212 -21.33333,0.99001 z"
     id="path4717"
     inkscape:label="right"
     inkscape:connector-curvature="0"
     sodipodi:nodetypes="ssscssssssccccccssssscsssssscsscccccccsscccsssssss" />
  <path
     id="path4697"
     style="fill:#737373;fill-opacity:1;stroke-width:0.666667"
     d="m 100.51041,76.094928 c 0.47968,-0.18407 4.45468,-0.24965 8.83333,-0.14574 l 7.9612,0.18893 v 8.66666 8.66667 l -7.90544,0.18845 c -5.25854,0.12535 -8.21613,-0.0694 -8.83334,-0.58163 l -0.927878,-0.77008 v -7.93929 -7.9393 l 0.872138,-0.33467 z m -0.0206,-35.99209 c 0.49102,-0.18842 4.47531,-0.25756 8.85396,-0.15365 l 7.96117,0.18893 v 8.33333 8.33333 h -8.66666 -8.666668 l -0.18729,-8.17967 -0.18729,-8.17968 0.892768,-0.34259 z m -0.0515,-36.1647201 c 0.52679,-0.5268 3.34482,-0.8 8.25171,-0.8 h 7.4517 l 0.77008,0.92788 c 0.51223,0.61721 0.70698,3.5748 0.58162,8.8333401 l -0.18844,7.90544 -7.90545,0.18845 c -5.25853,0.12535 -8.21613,-0.0694 -8.83333,-0.58163 l -0.927888,-0.77008 v -7.4517 c 0,-4.9068801 0.27321,-7.7249101 0.799998,-8.2517001 z"
     inkscape:label="dots"
     inkscape:connector-curvature="0" />
</svg>
